# xmcd CD database file
#
# Track frame offsets:
#	150
#	21300
#	42182
#	59466
#	75572
#	94055
#	116113
#	132616
#	151630
#	169995
#	189628
#	207644
#
# Disc length: 3007 seconds
#
# Revision: 1
# Processed by: cddbd v1.5.2PL0 Copyright (c) Steve Scherf et al.
# Submitted via: CDex 1.51
#
DISCID=a80bbd0c
DTITLE=Giannis Parios - Tupheis
DYEAR=1997
DGENRE=Greece
TTITLE0=Apone Kardia
TTITLE1=Den M' Noiazei
TTITLE2=To Saraki
TTITLE3=Diplo Krevvati
TTITLE4=Thlivero Topio
TTITLE5=Tha M' Anazetas
TTITLE6=Odophragmata
TTITLE7=Skouria
TTITLE8=Tupseis
TTITLE9=Kai Se Kreiazomai
TTITLE10=Dikopo Maxairi
TTITLE11=Me Meneis Moun
EXTD=YEAR: 1997
EXTT0=
EXTT1=
EXTT2=
EXTT3=
EXTT4=
EXTT5=
EXTT6=
EXTT7=
EXTT8=
EXTT9=
EXTT10=
EXTT11=
PLAYORDER=
